<?xml version="1.0" standalone="no"?>
<!DOCTYPE svg PUBLIC "-//W3C//DTD SVG 20010904//EN"
 "http://www.w3.org/TR/2001/REC-SVG-20010904/DTD/svg10.dtd">
<svg version="1.0" xmlns="http://www.w3.org/2000/svg"
 width="984.000000pt" height="430.000000pt" viewBox="0 0 984.000000 430.000000"
 preserveAspectRatio="xMidYMid meet">

<g transform="translate(0.000000,430.000000) scale(0.100000,-0.100000)"
fill="#000000" stroke="none">
<path d="M6083 2848 c-39 -73 -92 -176 -117 -228 -41 -85 -137 -255 -243 -428
-21 -34 -38 -68 -38 -75 0 -7 -9 -22 -19 -32 -10 -11 -28 -40 -40 -65 -12 -25
-30 -58 -42 -75 -11 -16 -43 -73 -70 -125 -27 -52 -54 -98 -60 -102 -7 -4 -15
-19 -18 -33 -4 -14 -13 -25 -21 -25 -8 0 -12 -6 -9 -14 3 -7 -1 -20 -8 -27 -7
-8 -22 -33 -32 -57 -28 -63 -39 -68 -75 -33 -75 73 -202 139 -286 148 -98 10
-199 -62 -304 -218 -94 -139 -180 -335 -221 -504 -8 -29 -32 -63 -90 -125 -44
-46 -80 -78 -81 -70 -1 8 -4 4 -8 -10 -4 -16 -17 -28 -36 -33 -17 -5 -43 -15
-58 -23 -26 -13 -28 -12 -37 12 -14 35 -13 75 6 276 17 182 14 272 -13 361
-31 108 -73 153 -160 171 -36 8 -111 -3 -94 -14 14 -8 4 -40 -13 -40 -6 0 -18
-11 -26 -24 -8 -13 -51 -68 -95 -123 -81 -99 -118 -151 -213 -298 -29 -44 -52
-75 -52 -68 0 6 13 45 30 86 16 42 30 83 30 92 0 15 2 16 17 4 15 -13 16 -11
10 19 -5 25 1 57 23 119 44 123 79 214 96 245 8 14 14 49 14 76 0 43 -4 54
-26 71 -37 29 -90 37 -139 20 -34 -12 -40 -18 -41 -44 -1 -16 -6 -43 -12 -60
-7 -16 -32 -95 -58 -175 -25 -80 -56 -170 -68 -200 -13 -30 -31 -80 -40 -110
-10 -30 -22 -64 -26 -75 -5 -11 -14 -37 -20 -57 -13 -42 -154 -182 -176 -174
-6 2 -20 -4 -30 -15 -9 -10 -48 -40 -86 -66 -54 -37 -71 -44 -81 -34 -9 9 -13
91 -17 304 -4 258 -7 296 -23 320 -9 15 -26 27 -36 27 -10 0 -32 7 -47 16 -29
15 -28 15 24 9 59 -8 59 -9 41 77 -21 96 -51 139 -137 194 -64 42 -130 58
-178 45 -87 -24 -163 -91 -241 -212 -22 -34 -45 -59 -55 -59 -11 0 -26 -17
-39 -42 -12 -24 -42 -76 -66 -116 -94 -155 -193 -396 -238 -580 l-17 -73 28
-42 c39 -58 54 -72 105 -96 78 -38 112 -19 209 116 19 26 64 80 100 118 59 63
152 173 205 243 42 55 91 120 107 143 9 13 32 44 50 69 l33 45 7 -202 c3 -112
11 -218 17 -235 16 -49 119 -151 183 -182 55 -27 56 -27 99 -10 25 9 67 40 97
70 46 47 72 65 72 49 0 -2 -7 -22 -16 -44 -19 -48 -8 -101 23 -116 12 -5 24
-17 26 -27 6 -22 89 -61 119 -56 17 2 25 14 34 51 7 26 16 53 22 60 5 7 15 30
22 52 16 50 106 232 131 264 10 13 17 27 14 31 -2 4 4 15 15 25 11 10 20 24
20 32 0 7 5 13 10 13 6 0 10 6 11 13 1 27 201 297 286 386 57 60 74 73 82 62
18 -28 23 -182 11 -351 -14 -183 -10 -287 13 -341 18 -42 109 -134 154 -156
52 -24 91 -4 195 99 l57 56 27 -116 c24 -109 29 -119 66 -154 47 -44 101 -63
150 -54 56 10 141 128 334 466 42 74 84 149 93 165 9 17 23 39 33 50 9 11 35
54 58 95 23 41 60 98 81 127 60 80 94 140 224 388 46 88 67 124 91 154 12 14
25 36 29 49 4 13 35 81 70 150 103 207 125 218 49 24 -73 -187 -230 -650 -290
-855 -108 -367 -204 -818 -204 -952 0 -120 27 -164 118 -191 87 -25 122 2 76
57 -27 31 -35 113 -18 207 8 48 24 141 35 207 12 66 34 171 50 233 16 62 29
121 28 130 -2 33 -78 -277 -107 -438 -6 -30 -7 -24 -12 35 -3 39 -2 73 3 76 4
3 9 16 10 27 1 12 5 22 9 22 5 0 6 17 3 37 -6 48 25 166 36 137 8 -20 8 -19
14 91 1 28 10 66 19 85 11 24 14 27 10 10 -11 -54 14 8 41 100 27 91 54 144
56 110 0 -8 11 24 24 72 14 48 38 117 55 152 16 36 30 72 30 79 0 23 51 170
66 192 8 11 14 29 14 40 0 11 16 65 36 120 19 55 41 118 49 140 7 22 34 90 60
150 25 61 54 133 62 160 9 28 22 57 29 65 6 8 19 40 28 70 8 30 63 151 121
268 58 117 105 219 105 226 0 26 -40 49 -93 54 l-52 4 -72 -134z m-322 -1121
c-64 -190 -90 -257 -91 -232 0 19 22 91 45 140 12 28 41 108 65 178 23 71 44
126 46 124 3 -3 -26 -97 -65 -210z m-132 -110 c-5 -20 -14 -37 -19 -37 -10 0
-7 17 10 53 18 36 22 29 9 -16z m104 -62 c-3 -9 -8 -14 -10 -11 -3 3 -2 9 2
15 9 16 15 13 8 -4z m-3009 -64 c29 -66 33 -103 11 -121 -8 -7 -15 -16 -15
-21 0 -9 -95 -151 -120 -180 -30 -35 -41 -50 -87 -116 -26 -38 -52 -71 -57
-75 -6 -4 -8 -10 -4 -13 4 -4 20 13 37 37 17 23 39 54 50 68 56 71 171 225
175 235 2 6 8 6 16 -2 13 -12 -12 -49 -258 -372 -62 -82 -212 -249 -241 -267
-22 -15 -24 -15 -17 1 3 10 1 25 -6 34 -11 14 -11 14 3 3 14 -11 24 -4 73 48
55 60 78 103 34 63 -13 -11 -31 -23 -41 -26 -9 -4 -22 -17 -27 -29 -5 -13 -9
-19 -9 -13 -1 5 -28 -17 -61 -50 -33 -32 -62 -57 -64 -54 -20 20 150 392 259
568 100 161 264 341 309 341 7 0 25 -26 40 -59z m2461 13 c19 -26 35 -52 35
-58 0 -6 9 -17 20 -24 24 -15 26 -47 4 -56 -8 -3 -13 -10 -10 -15 4 -5 0 -16
-8 -24 -8 -8 -13 -17 -10 -19 2 -3 -5 -13 -16 -23 -11 -10 -20 -26 -20 -36 0
-9 -3 -19 -7 -21 -11 -5 -95 -116 -123 -163 -13 -22 -84 -131 -157 -242 -144
-218 -239 -328 -256 -297 -20 36 19 253 80 439 74 228 246 492 368 566 45 28
61 24 100 -27z m400 -17 c-8 -20 -17 -37 -19 -37 -6 0 4 42 17 68 18 37 19 10
2 -31z m-1615 -34 c0 -3 -26 -34 -57 -68 -104 -112 -133 -145 -133 -151 0 -3
-40 -61 -90 -128 -49 -68 -90 -126 -90 -130 0 -3 -15 -27 -34 -53 -18 -27 -41
-63 -51 -81 -9 -19 -19 -32 -21 -29 -6 6 122 227 189 326 57 85 136 182 216
264 51 53 71 67 71 50z m1669 -82 c-12 -34 -23 -60 -25 -58 -2 2 6 32 17 66
12 34 23 60 25 58 2 -2 -6 -32 -17 -66z m-3348 -28 c-44 -83 -144 -244 -166
-268 -27 -29 -27 -29 -20 -5 13 45 109 204 148 248 42 45 53 52 38 25z m1210
-20 c-15 -68 -125 -380 -139 -395 -9 -11 -11 -18 -4 -18 8 0 4 -19 -9 -52 -12
-29 -32 -88 -44 -132 -21 -71 -47 -117 -59 -105 -10 10 65 244 86 266 12 13
16 23 10 23 -11 0 -10 8 5 48 3 9 8 28 10 42 2 14 8 34 13 45 15 33 100 249
115 293 9 24 22 11 16 -15z m2023 -50 c-4 -16 -12 -37 -18 -48 -10 -20 -11
-20 -14 1 -4 26 14 74 28 74 6 0 8 -11 4 -27z m83 -5 c-3 -8 -6 -5 -6 6 -1 11
2 17 5 13 3 -3 4 -12 1 -19z m-3317 -2 c0 -2 -18 -37 -40 -77 -78 -142 -159
-315 -190 -404 -17 -49 -35 -94 -42 -100 -8 -7 -9 -3 -4 15 4 14 13 48 21 76
16 57 66 174 122 284 72 141 133 235 133 206z m447 -30 c-6 -14 -91 -138 -128
-186 -11 -14 -57 -74 -103 -135 -85 -113 -272 -313 -282 -302 -3 3 38 55 93
115 54 60 168 202 253 316 138 184 184 236 167 192z m2850 -28 c-3 -8 -6 -5
-6 6 -1 11 2 17 5 13 3 -3 4 -12 1 -19z m-2050 -53 c-4 -8 -11 -15 -17 -15 -7
0 -7 6 0 21 13 23 26 19 17 -6z m533 -104 c0 -6 -4 -13 -10 -16 -5 -3 -10 1
-10 9 0 9 5 16 10 16 6 0 10 -4 10 -9z m1372 -63 c-9 -20 -11 -18 -11 22 0 40
2 42 11 23 8 -17 8 -29 0 -45z m-3358 20 c-4 -13 -8 -32 -9 -43 -1 -11 -3 -20
-4 -20 -2 0 -5 -11 -7 -25 -2 -13 -11 -34 -18 -45 -7 -11 -17 -35 -21 -53 -3
-18 -11 -30 -16 -26 -9 5 -13 -8 -10 -38 2 -16 -16 -34 -25 -26 -6 6 59 194
87 251 25 50 35 61 23 25z m1967 -89 l-11 -34 5 34 c3 18 6 48 7 65 l1 31 4
-31 c2 -18 -1 -47 -6 -65z m1449 71 c0 -5 -4 -10 -10 -10 -5 0 -10 5 -10 10 0
6 5 10 10 10 6 0 10 -4 10 -10z m-2702 -122 l-1 -113 -6 90 c-6 84 -4 135 5
135 2 0 3 -51 2 -112z m451 -70 c-28 -89 -45 -109 -101 -119 -24 -4 -54 -10
-68 -14 -24 -7 -24 -7 -5 8 11 9 16 17 10 17 -5 0 33 43 85 95 52 52 96 93 98
91 2 -3 -7 -37 -19 -78z m2138 -10 c-3 -8 -6 -5 -6 6 -1 11 2 17 5 13 3 -3 4
-12 1 -19z m54 -31 c-13 -13 -15 11 -4 40 7 16 8 15 11 -6 2 -13 -1 -28 -7
-34z m-3480 -80 c-10 -9 -11 -8 -5 6 3 10 9 15 12 12 3 -3 0 -11 -7 -18z
m3375 -35 c-11 -10 -15 4 -8 28 l7 25 3 -23 c2 -13 1 -26 -2 -30z m78 -37 c-4
-8 -8 -15 -10 -15 -2 0 -4 7 -4 15 0 8 4 15 10 15 5 0 7 -7 4 -15z m-2150 -16
c-6 -11 -24 -2 -24 11 0 5 7 7 15 4 8 -4 12 -10 9 -15z"/>
<path d="M2380 880 c-17 -22 -26 -38 -18 -35 12 5 63 75 54 75 -2 0 -19 -18
-36 -40z"/>
<path d="M3100 700 c-9 -6 -10 -10 -3 -10 6 0 15 5 18 10 8 12 4 12 -15 0z"/>
<path d="M1325 2743 c-218 -46 -464 -172 -690 -356 -103 -83 -272 -258 -365
-378 -194 -250 -270 -412 -256 -547 10 -93 44 -151 154 -261 71 -70 109 -100
157 -122 50 -22 64 -34 70 -56 6 -27 7 -27 21 -9 29 41 23 5 -16 -92 -22 -55
-40 -107 -40 -115 0 -9 -5 -19 -11 -23 -8 -4 -9 4 -4 27 4 24 3 30 -4 19 -15
-23 -23 -6 -11 26 9 26 9 27 -4 11 -28 -37 -50 -307 -35 -442 9 -82 33 -121
131 -217 104 -102 221 -184 276 -194 71 -14 173 10 287 65 l106 52 98 -36
c240 -86 435 -87 595 -2 79 42 147 106 177 164 13 26 30 56 38 66 13 15 12 22
-3 54 -10 20 -21 32 -24 27 -4 -5 -27 -15 -52 -21 -66 -17 -107 -35 -92 -40 8
-3 1 -16 -20 -38 -36 -38 -86 -54 -185 -57 -68 -2 -283 57 -283 77 0 6 12 22
26 36 44 41 159 189 221 286 87 134 288 543 312 633 12 41 38 127 60 190 73
210 97 544 52 710 -37 137 -50 170 -78 208 -80 108 -258 291 -292 299 -14 3
-37 11 -51 18 -89 46 -173 58 -265 38z m313 -188 c52 -21 123 -98 155 -168 14
-29 37 -104 52 -167 24 -101 26 -127 21 -215 -6 -93 -28 -224 -46 -270 -4 -11
-36 -105 -70 -210 -34 -104 -83 -235 -107 -290 -71 -158 -234 -452 -292 -525
-15 -19 -46 -62 -68 -95 -23 -33 -73 -91 -112 -130 l-71 -70 -37 20 c-77 42
-170 154 -193 233 -7 26 -3 37 22 71 l30 41 -25 0 c-36 0 -122 -95 -137 -151
-6 -24 -15 -56 -20 -71 -13 -41 0 -137 26 -189 13 -26 39 -64 59 -84 19 -21
35 -41 35 -45 0 -15 -143 -72 -195 -77 -107 -11 -191 48 -236 166 -19 52 -20
71 -16 251 4 199 14 257 64 403 l17 47 55 0 c69 0 191 17 205 29 6 4 35 11 64
14 64 7 269 99 337 151 25 19 71 49 102 65 70 37 123 85 123 110 0 50 -61 139
-95 141 -6 0 -27 8 -47 18 l-36 19 -44 -34 c-51 -41 -167 -114 -221 -139 -25
-12 -33 -20 -25 -25 19 -12 2 -24 -97 -65 -98 -40 -145 -56 -145 -47 0 7 41
66 55 78 6 6 29 35 52 65 54 73 92 110 114 110 10 0 20 4 24 9 3 5 21 7 41 4
35 -6 35 -6 32 28 -3 30 -8 35 -48 50 -25 9 -43 20 -42 24 4 9 -18 25 -35 25
-7 0 -13 -7 -13 -16 0 -8 -4 -12 -10 -9 -13 8 -52 -14 -45 -26 4 -5 1 -8 -7
-7 -7 2 -12 -3 -10 -10 1 -8 -1 -11 -6 -8 -9 5 -41 -25 -56 -51 -5 -9 -2 -11
9 -7 11 5 14 2 9 -12 -4 -11 13 0 40 26 25 24 46 41 46 37 0 -4 -29 -44 -65
-88 -36 -44 -76 -97 -90 -117 -13 -20 -33 -48 -44 -62 -11 -14 -21 -30 -21
-37 0 -14 -35 -36 -65 -41 -11 -2 -60 -4 -110 -4 -120 0 -199 27 -214 75 -23
76 -23 114 3 212 21 79 40 119 95 209 93 148 215 298 347 426 136 131 202 182
377 286 187 113 293 146 452 141 75 -3 123 -10 153 -22z m-993 -1265 c3 -5 1
-10 -4 -10 -6 0 -11 5 -11 10 0 6 2 10 4 10 3 0 8 -4 11 -10z m978 -330 c-3
-11 -10 -23 -16 -27 -5 -3 -8 -2 -5 3 3 5 8 17 11 27 9 24 16 22 10 -3z m-102
-183 c-10 -9 -11 -8 -5 6 3 10 9 15 12 12 3 -3 0 -11 -7 -18z m-537 -357 c66
-43 67 -44 48 -63 -17 -16 -23 -17 -43 -6 -62 33 -179 168 -179 207 0 8 24
-10 54 -41 29 -30 84 -74 120 -97z m-106 -12 c27 -24 62 -53 78 -64 16 -12 26
-25 22 -29 -12 -13 -127 78 -149 118 -15 26 -4 21 49 -25z m52 -120 c0 -6 -6
-5 -15 2 -8 7 -15 14 -15 16 0 2 7 1 15 -2 8 -4 15 -11 15 -16z m393 -37 c40
-17 70 -41 51 -41 -6 0 -104 32 -113 37 -4 2 8 23 14 23 2 0 23 -9 48 -19z"/>
<path d="M690 1481 c0 -5 -9 -13 -20 -16 -11 -3 -20 -13 -20 -21 0 -8 -8 -14
-17 -15 -11 0 -13 -3 -5 -6 6 -2 10 -9 6 -14 -3 -5 -1 -9 3 -9 5 0 26 20 46
45 26 31 33 45 22 45 -8 0 -15 -4 -15 -9z"/>
<path d="M575 1318 c-6 -13 -15 -22 -21 -21 -5 1 -10 -7 -10 -18 0 -16 3 -15
23 9 12 15 22 33 23 40 0 18 -4 15 -15 -10z"/>
<path d="M7383 2698 c-43 -46 -117 -199 -223 -464 -128 -319 -264 -784 -311
-1064 -6 -41 -18 -82 -26 -92 -8 -9 -10 -19 -5 -22 11 -6 1 -71 -16 -102 -6
-11 -8 -30 -5 -42 9 -35 -5 -69 -44 -112 -21 -22 -40 -40 -44 -40 -19 0 4 55
42 100 23 27 40 53 37 56 -3 3 -35 -33 -71 -78 -35 -46 -72 -90 -81 -97 -14
-12 -16 -11 -16 8 0 19 24 57 91 144 12 15 19 30 17 32 -2 3 -26 -25 -52 -60
-34 -47 -82 -91 -167 -155 -112 -84 -179 -127 -179 -115 0 3 -19 -7 -42 -22
-35 -24 -54 -29 -125 -32 -53 -2 -89 1 -97 8 -20 17 -41 137 -27 154 6 8 34
26 64 40 62 32 218 185 280 274 180 262 206 309 222 400 8 52 -17 114 -66 159
-48 43 -191 124 -220 124 -39 -1 -103 -34 -162 -86 -30 -27 -67 -57 -81 -67
-60 -41 -177 -259 -222 -412 -45 -158 -43 -381 6 -492 40 -90 163 -194 278
-232 77 -26 93 -26 170 0 137 46 311 175 418 309 l59 74 5 -134 c6 -125 8
-139 35 -189 34 -62 87 -111 142 -129 21 -8 57 -23 80 -35 l42 -21 43 23 c65
36 85 57 157 168 121 186 301 532 301 578 0 14 4 24 9 20 5 -3 26 27 45 67 20
40 36 65 36 55 0 -10 -12 -84 -27 -165 -21 -121 -26 -179 -27 -327 l-1 -180
30 -54 c34 -62 88 -111 142 -129 21 -8 57 -23 80 -35 l42 -21 43 23 c65 36 85
57 157 168 121 186 301 532 301 578 0 14 4 24 9 21 5 -3 23 22 39 57 17 34 56
113 86 175 53 108 68 162 45 162 -5 0 -15 -15 -21 -32 -17 -49 -109 -223 -172
-326 -31 -49 -56 -93 -56 -96 0 -3 -14 -29 -31 -58 -18 -29 -47 -82 -67 -118
-19 -36 -48 -81 -63 -101 -16 -20 -29 -41 -29 -47 0 -5 -7 -15 -15 -22 -8 -7
-15 -10 -15 -6 0 3 34 66 74 139 87 153 103 192 52 123 -19 -27 -38 -58 -42
-69 -4 -11 -14 -29 -24 -39 -9 -10 -41 -59 -70 -108 -28 -49 -56 -87 -61 -84
-5 3 -6 -3 -2 -12 4 -11 3 -15 -5 -10 -6 3 -13 -2 -17 -13 -10 -34 -161 -185
-177 -178 -27 10 -48 72 -48 140 0 490 320 1600 575 1993 24 38 45 76 45 85 0
21 -48 65 -92 83 -103 43 -134 12 -253 -255 -139 -312 -260 -663 -341 -990
-26 -107 -64 -188 -171 -361 -29 -47 -53 -89 -53 -92 0 -3 -14 -29 -31 -58
-18 -29 -47 -82 -67 -118 -19 -36 -48 -81 -63 -101 -16 -20 -29 -41 -29 -47 0
-5 -7 -15 -15 -22 -8 -7 -15 -10 -15 -6 0 3 34 66 74 139 87 153 103 192 52
123 -19 -27 -38 -58 -42 -69 -4 -11 -14 -29 -24 -39 -9 -10 -41 -59 -70 -108
-28 -49 -56 -87 -61 -84 -5 3 -6 -3 -2 -12 4 -11 3 -15 -5 -10 -6 3 -13 -2
-17 -13 -10 -34 -161 -185 -177 -178 -27 10 -48 72 -48 140 0 490 320 1600
575 1993 24 38 45 76 45 85 0 21 -48 65 -92 83 -58 25 -90 20 -125 -16z m-232
-646 c-78 -213 -154 -470 -216 -731 -22 -96 -46 -176 -53 -179 -20 -6 -14 35
32 218 82 322 94 364 155 535 62 171 141 359 148 351 2 -2 -27 -89 -66 -194z
m831 1 c-39 -104 -95 -279 -127 -389 -31 -109 -58 -201 -60 -203 -2 -1 -8 0
-13 3 -10 6 -10 7 32 166 45 171 219 631 233 616 2 -2 -27 -89 -65 -193z
m-741 109 c-10 -31 -23 -68 -30 -80 -7 -13 -28 -72 -47 -130 -32 -100 -53
-151 -54 -126 0 6 11 43 24 82 17 50 21 72 13 76 -7 3 -6 5 3 5 10 1 27 35 49
94 48 132 50 137 55 137 2 0 -4 -26 -13 -58z m830 0 c-10 -31 -23 -68 -30 -80
-7 -13 -28 -72 -47 -130 -32 -100 -53 -151 -54 -126 0 6 11 43 24 82 17 50 21
72 13 76 -7 3 -6 5 3 5 10 1 27 35 49 94 48 132 50 137 55 137 2 0 -4 -26 -13
-58z m-979 -444 c-23 -71 -99 -371 -131 -523 -23 -104 -38 -151 -47 -143 -3 3
8 66 25 140 16 73 27 147 25 163 -3 22 -2 25 4 11 6 -14 11 -7 20 34 7 28 9
56 6 61 -3 6 -1 16 5 23 9 10 40 99 41 114 0 2 -6 0 -12 -4 -7 -4 -5 1 4 12 9
10 18 31 20 46 2 15 7 30 11 34 4 4 7 13 7 21 0 21 30 87 36 80 3 -3 -3 -34
-14 -69z m829 0 c-39 -121 -171 -686 -204 -878 -3 -14 -4 12 -3 56 0 45 3 80
5 78 8 -7 73 321 73 366 0 28 3 38 7 26 5 -13 10 -5 19 34 7 28 9 56 6 61 -3
6 -1 16 5 23 9 10 40 99 41 114 0 2 -6 0 -12 -4 -7 -4 -5 1 4 12 9 10 18 31
20 46 2 15 7 30 11 34 4 4 7 13 7 21 0 21 30 87 36 80 3 -3 -3 -34 -15 -69z
m-1467 -160 c10 -39 7 -73 -13 -139 -10 -35 -22 -76 -25 -90 -15 -65 -333
-489 -367 -489 -5 0 -9 -8 -9 -17 -1 -16 -2 -16 -11 1 -17 27 -2 127 31 215
89 240 159 358 253 432 29 23 65 56 80 75 33 40 52 43 61 12z m1301 -280 c-17
-72 -37 -134 -43 -136 -16 -5 -15 29 3 102 16 69 54 166 65 166 4 0 -7 -59
-25 -132z m-875 -185 c0 -10 -7 -27 -15 -37 -15 -19 -15 -19 -15 1 0 28 10 53
21 53 5 0 9 -8 9 -17z m830 0 c0 -40 -31 -208 -40 -213 -5 -3 -10 -38 -12 -77
-2 -40 -8 -76 -12 -80 -14 -13 13 237 40 365 5 26 24 30 24 5z m-855 -139 c-8
-20 -18 -34 -21 -31 -9 9 7 68 17 61 5 -3 10 5 10 18 1 15 3 17 6 6 2 -9 -3
-33 -12 -54z m49 -26 c-4 -18 -11 -51 -15 -73 -6 -31 -7 -26 -4 23 2 35 7 67
10 72 12 20 16 9 9 -22z m67 -45 c-9 -16 -10 -16 -11 -1 0 9 3 25 7 35 7 16 8
17 11 1 2 -10 -1 -25 -7 -35z m830 0 c-9 -16 -10 -16 -11 -1 0 9 3 25 7 35 7
16 8 17 11 1 2 -10 -1 -25 -7 -35z m-974 -98 c-4 -64 -17 -87 -17 -29 0 39 9
84 16 84 2 0 3 -25 1 -55z m50 -42 c-2 -16 -4 -5 -4 22 0 28 2 40 4 28 2 -13
2 -35 0 -50z m830 0 c-2 -16 -4 -5 -4 22 0 28 2 40 4 28 2 -13 2 -35 0 -50z
m-840 -105 c-2 -13 -4 -3 -4 22 0 25 2 35 4 23 2 -13 2 -33 0 -45z m830 0 c-2
-13 -4 -3 -4 22 0 25 2 35 4 23 2 -13 2 -33 0 -45z m-757 0 c0 -5 -4 -8 -10
-8 -5 0 -10 10 -10 23 0 18 2 19 10 7 5 -8 10 -18 10 -22z m830 0 c0 -5 -4 -8
-10 -8 -5 0 -10 10 -10 23 0 18 2 19 10 7 5 -8 10 -18 10 -22z"/>
<path d="M7681 1004 c0 -11 3 -14 6 -6 3 7 2 16 -1 19 -3 4 -6 -2 -5 -13z"/>
<path d="M8979 1656 c-85 -30 -151 -90 -226 -207 -22 -34 -45 -59 -55 -59 -11
0 -26 -17 -39 -42 -12 -24 -42 -76 -66 -116 -94 -155 -193 -396 -238 -580
l-17 -73 28 -42 c39 -58 54 -72 105 -96 78 -38 112 -19 209 116 19 26 64 80
100 118 59 63 152 173 205 243 42 55 91 120 107 143 9 13 32 44 50 69 l33 45
7 -202 c3 -112 11 -218 17 -235 16 -49 119 -151 183 -182 55 -27 56 -27 99
-10 24 9 67 38 94 65 28 26 71 67 98 90 57 50 55 65 -2 18 -23 -18 -59 -35
-83 -40 -24 -4 -54 -10 -68 -14 -21 -5 -22 -5 -7 5 9 6 15 15 13 19 -3 4 58
70 134 146 77 76 138 141 135 143 -2 3 -52 -41 -111 -97 -60 -58 -111 -100
-119 -97 -7 2 -21 -4 -31 -15 -9 -10 -48 -40 -86 -66 -54 -37 -71 -44 -81 -34
-9 9 -13 91 -17 304 -4 258 -7 296 -23 320 -9 15 -26 27 -36 27 -10 0 -32 7
-47 16 -29 15 -28 15 24 9 59 -8 59 -9 41 77 -13 61 -32 103 -63 137 -33 37
-122 90 -169 101 -53 12 -54 12 -98 -4z m185 -157 c29 -68 33 -111 11 -133 -8
-8 -15 -20 -15 -26 0 -7 -9 -24 -21 -38 -32 -42 -73 -98 -89 -122 -8 -12 -30
-42 -48 -66 -18 -24 -29 -44 -25 -43 7 0 148 187 173 229 7 11 12 12 21 3 11
-11 -16 -52 -191 -283 -42 -56 -74 -106 -58 -90 12 12 213 275 240 314 4 6 10
7 14 3 9 -9 -48 -91 -227 -328 -89 -118 -275 -317 -285 -306 -4 4 33 49 81
102 48 52 86 98 83 100 -2 3 -33 -27 -68 -65 -36 -39 -75 -78 -89 -87 -22 -14
-24 -14 -17 2 3 10 1 24 -5 32 -10 12 -18 8 -50 -23 -21 -21 -41 -36 -43 -33
-23 23 152 407 270 590 94 147 263 329 305 329 3 0 18 -27 33 -61z m-433 -156
c-44 -83 -144 -244 -166 -268 -27 -29 -27 -29 -20 -5 13 45 109 204 148 248
42 45 53 52 38 25z m-1 -77 c0 -2 -18 -37 -40 -77 -78 -142 -159 -315 -190
-404 -17 -49 -35 -94 -42 -100 -8 -7 -9 -3 -4 15 4 14 13 48 21 76 16 57 66
174 122 284 72 141 133 235 133 206z m-206 -258 c-4 -13 -8 -32 -9 -43 -1 -11
-3 -20 -4 -20 -2 0 -5 -11 -7 -25 -2 -13 -11 -34 -18 -45 -7 -11 -17 -35 -21
-53 -3 -18 -11 -30 -16 -26 -9 5 -13 -8 -10 -38 2 -16 -16 -34 -25 -26 -6 6
59 194 87 251 25 50 35 61 23 25z m714 -140 l-1 -113 -6 90 c-6 84 -4 135 5
135 2 0 3 -51 2 -112z m-837 -191 c-10 -9 -11 -8 -5 6 3 10 9 15 12 12 3 -3 0
-11 -7 -18z"/>
<path d="M8889 893 c-13 -16 -12 -17 4 -4 16 13 21 21 13 21 -2 0 -10 -8 -17
-17z"/>
<path d="M8849 843 c-13 -16 -12 -17 4 -4 9 7 17 15 17 17 0 8 -8 3 -21 -13z"/>
<path d="M8723 790 c-13 -5 -23 -14 -23 -19 0 -6 -12 -21 -26 -35 -16 -14 -23
-29 -19 -36 8 -12 77 47 96 83 11 19 5 20 -28 7z"/>
<path d="M3765 1380 c-10 -11 -15 -23 -12 -27 7 -6 36 25 37 40 0 11 -6 8 -25
-13z"/>
<path d="M3715 1321 c-3 -5 -1 -12 5 -16 5 -3 10 1 10 9 0 18 -6 21 -15 7z"/>
<path d="M3670 1260 c-6 -11 -8 -20 -6 -20 3 0 10 9 16 20 6 11 8 20 6 20 -3
0 -10 -9 -16 -20z"/>
<path d="M5611 1163 c-1 -6 -4 -20 -7 -30 -5 -17 -5 -17 6 0 6 10 9 23 6 30
-3 9 -5 9 -5 0z"/>
<path d="M5591 1094 c0 -11 3 -14 6 -6 3 7 2 16 -1 19 -3 4 -6 -2 -5 -13z"/>
<path d="M7466 995 c-3 -8 -1 -15 4 -15 13 0 22 18 11 24 -5 3 -11 -1 -15 -9z"/>
<path d="M8296 995 c-3 -8 -1 -15 4 -15 13 0 22 18 11 24 -5 3 -11 -1 -15 -9z"/>
<path d="M5541 934 c0 -11 3 -14 6 -6 3 7 2 16 -1 19 -3 4 -6 -2 -5 -13z"/>
<path d="M9799 923 l-24 -28 28 24 c15 14 27 26 27 28 0 8 -8 1 -31 -24z"/>
<path d="M9540 700 c-9 -6 -10 -10 -3 -10 6 0 15 5 18 10 8 12 4 12 -15 0z"/>
</g>
</svg>
